{
	"asset":{
		"generator":"Khronos glTF Blender I/O v3.6.27",
		"version":"2.0"
	},
	"extensionsUsed":[
		"KHR_materials_specular",
		"KHR_materials_ior"
	],
	"scene":0,
	"scenes":[
		{
			"name":"Scene",
			"nodes":[
				0,
				1,
				2,
				3,
				4
			]
		}
	],
	"nodes":[
		{
			"mesh":0,
			"name":"PIP Sencor",
			"scale":[
				0.15119999647140503,
				0.15119999647140503,
				0.15119999647140503
			],
			"translation":[
				-0.000490482896566391,
				0.7647138833999634,
				0.015472984872758389
			]
		},
		{
			"mesh":1,
			"name":"bottomroot",
			"rotation":[
				1,
				0,
				0,
				1.9470718370939721e-07
			],
			"scale":[
				0.17919999361038208,
				0.12902401387691498,
				0.17919999361038208
			],
			"translation":[
				-0.000490482896566391,
				0.13144129514694214,
				0.015472984872758389
			]
		},
		{
			"mesh":2,
			"name":"bottomball",
			"rotation":[
				1,
				0,
				0,
				1.9470718370939721e-07
			],
			"scale":[
				0.18956084549427032,
				0.18956084549427032,
				0.18956084549427032
			],
			"translation":[
				-0.000490482896566391,
				0.2888752818107605,
				0.015472984872758389
			]
		},
		{
			"mesh":3,
			"name":"rearcover",
			"scale":[
				0.5597425103187561,
				0.12882961332798004,
				0.5597425103187561
			],
			"translation":[
				-0.0004904270172119141,
				0.7811756134033203,
				-0.0021104542538523674
			]
		},
		{
			"mesh":4,
			"name":"frontcover",
			"scale":[
				0.5597425103187561,
				0.12882961332798004,
				0.5597425103187561
			],
			"translation":[
				-0.0004906654357910156,
				0.7811756134033203,
				-0.0021104542538523674
			]
		}
	],
	"materials":[
		{
			"doubleSided":true,
			"name":"\ub9e4\ud14c\ub9ac\uc5bc.002",
			"pbrMetallicRoughness":{}
		},
		{
			"doubleSided":true,
			"emissiveFactor":[
				0.800000011920929,
				0.800000011920929,
				0.800000011920929
			],
			"name":"White Plastic.005",
			"pbrMetallicRoughness":{
				"baseColorFactor":[
					0.800000011920929,
					0.800000011920929,
					0.800000011920929,
					1
				],
				"metallicFactor":0
			}
		},
		{
			"doubleSided":true,
			"emissiveFactor":[
				1,
				1,
				1
			],
			"extensions":{
				"KHR_materials_specular":{
					"specularColorFactor":[
						2.3713576144413984,
						2.3713576144413984,
						2.3713576144413984
					]
				},
				"KHR_materials_ior":{
					"ior":1.4500000476837158
				}
			},
			"name":"SILVER.003",
			"pbrMetallicRoughness":{
				"baseColorFactor":[
					0.5,
					0.5,
					0.5,
					1
				],
				"roughnessFactor":0.10866141319274902
			}
		},
		{
			"doubleSided":true,
			"emissiveFactor":[
				0.3616342544555664,
				0.41083237528800964,
				0.49693143367767334
			],
			"extensions":{
				"KHR_materials_specular":{
					"specularColorFactor":[
						0,
						0,
						0
					]
				}
			},
			"name":"grayplastic.002",
			"pbrMetallicRoughness":{
				"baseColorFactor":[
					0.22378751635551453,
					0.257728636264801,
					0.29999998211860657,
					1
				],
				"metallicFactor":0
			}
		}
	],
	"meshes":[
		{
			"name":"Sphere.003",
			"primitives":[
				{
					"attributes":{
						"POSITION":0,
						"NORMAL":1,
						"TEXCOORD_0":2
					},
					"indices":3,
					"material":0
				}
			]
		},
		{
			"name":"Cylinder.003",
			"primitives":[
				{
					"attributes":{
						"POSITION":4,
						"NORMAL":5,
						"TEXCOORD_0":6
					},
					"indices":7,
					"material":1
				}
			]
		},
		{
			"name":"Sphere.004",
			"primitives":[
				{
					"attributes":{
						"POSITION":8,
						"NORMAL":9,
						"TEXCOORD_0":10
					},
					"indices":11,
					"material":2
				}
			]
		},
		{
			"name":"Cube.001",
			"primitives":[
				{
					"attributes":{
						"POSITION":12,
						"NORMAL":13,
						"TEXCOORD_0":14
					},
					"indices":15,
					"material":3
				}
			]
		},
		{
			"name":"Cube.002",
			"primitives":[
				{
					"attributes":{
						"POSITION":16,
						"NORMAL":17,
						"TEXCOORD_0":18
					},
					"indices":19,
					"material":1
				}
			]
		}
	],
	"accessors":[
		{
			"bufferView":0,
			"componentType":5126,
			"count":496,
			"max":[
				0.9999999403953552,
				1,
				0.9999998807907104
			],
			"min":[
				-0.9999998807907104,
				-1,
				-0.9999998807907104
			],
			"type":"VEC3"
		},
		{
			"bufferView":1,
			"componentType":5126,
			"count":496,
			"type":"VEC3"
		},
		{
			"bufferView":2,
			"componentType":5126,
			"count":496,
			"type":"VEC2"
		},
		{
			"bufferView":3,
			"componentType":5123,
			"count":720,
			"type":"SCALAR"
		},
		{
			"bufferView":4,
			"componentType":5126,
			"count":20639,
			"max":[
				1.3440004587173462,
				0.9999550580978394,
				1.3440004587173462
			],
			"min":[
				-1.3440004587173462,
				-1,
				-1.3440004587173462
			],
			"type":"VEC3"
		},
		{
			"bufferView":5,
			"componentType":5126,
			"count":20639,
			"type":"VEC3"
		},
		{
			"bufferView":6,
			"componentType":5126,
			"count":20639,
			"type":"VEC2"
		},
		{
			"bufferView":7,
			"componentType":5123,
			"count":118764,
			"type":"SCALAR"
		},
		{
			"bufferView":8,
			"componentType":5126,
			"count":5882,
			"max":[
				1.0000355243682861,
				1.0000667572021484,
				0.9998020529747009
			],
			"min":[
				-1.0001304149627686,
				-1.0000667572021484,
				-0.9998961687088013
			],
			"type":"VEC3"
		},
		{
			"bufferView":9,
			"componentType":5126,
			"count":5882,
			"type":"VEC3"
		},
		{
			"bufferView":10,
			"componentType":5126,
			"count":5882,
			"type":"VEC2"
		},
		{
			"bufferView":11,
			"componentType":5123,
			"count":31971,
			"type":"SCALAR"
		},
		{
			"bufferView":12,
			"componentType":5126,
			"count":1619,
			"max":[
				1.0449998378753662,
				-1.6462656259536743,
				1.0449998378753662
			],
			"min":[
				-1.0449999570846558,
				-2.744917631149292,
				-1.0449999570846558
			],
			"type":"VEC3"
		},
		{
			"bufferView":13,
			"componentType":5126,
			"count":1619,
			"type":"VEC3"
		},
		{
			"bufferView":14,
			"componentType":5126,
			"count":1619,
			"type":"VEC2"
		},
		{
			"bufferView":15,
			"componentType":5123,
			"count":4794,
			"type":"SCALAR"
		},
		{
			"bufferView":16,
			"componentType":5126,
			"count":37390,
			"max":[
				1.0449999570846558,
				1.0450010299682617,
				1.0449999570846558
			],
			"min":[
				-1.0449988842010498,
				-1.6462658643722534,
				-1.0449988842010498
			],
			"type":"VEC3"
		},
		{
			"bufferView":17,
			"componentType":5126,
			"count":37390,
			"type":"VEC3"
		},
		{
			"bufferView":18,
			"componentType":5126,
			"count":37390,
			"type":"VEC2"
		},
		{
			"bufferView":19,
			"componentType":5123,
			"count":77169,
			"type":"SCALAR"
		}
	],
	"bufferViews":[
		{
			"buffer":0,
			"byteLength":5952,
			"byteOffset":0,
			"target":34962
		},
		{
			"buffer":0,
			"byteLength":5952,
			"byteOffset":5952,
			"target":34962
		},
		{
			"buffer":0,
			"byteLength":3968,
			"byteOffset":11904,
			"target":34962
		},
		{
			"buffer":0,
			"byteLength":1440,
			"byteOffset":15872,
			"target":34963
		},
		{
			"buffer":0,
			"byteLength":247668,
			"byteOffset":17312,
			"target":34962
		},
		{
			"buffer":0,
			"byteLength":247668,
			"byteOffset":264980,
			"target":34962
		},
		{
			"buffer":0,
			"byteLength":165112,
			"byteOffset":512648,
			"target":34962
		},
		{
			"buffer":0,
			"byteLength":237528,
			"byteOffset":677760,
			"target":34963
		},
		{
			"buffer":0,
			"byteLength":70584,
			"byteOffset":915288,
			"target":34962
		},
		{
			"buffer":0,
			"byteLength":70584,
			"byteOffset":985872,
			"target":34962
		},
		{
			"buffer":0,
			"byteLength":47056,
			"byteOffset":1056456,
			"target":34962
		},
		{
			"buffer":0,
			"byteLength":63942,
			"byteOffset":1103512,
			"target":34963
		},
		{
			"buffer":0,
			"byteLength":19428,
			"byteOffset":1167456,
			"target":34962
		},
		{
			"buffer":0,
			"byteLength":19428,
			"byteOffset":1186884,
			"target":34962
		},
		{
			"buffer":0,
			"byteLength":12952,
			"byteOffset":1206312,
			"target":34962
		},
		{
			"buffer":0,
			"byteLength":9588,
			"byteOffset":1219264,
			"target":34963
		},
		{
			"buffer":0,
			"byteLength":448680,
			"byteOffset":1228852,
			"target":34962
		},
		{
			"buffer":0,
			"byteLength":448680,
			"byteOffset":1677532,
			"target":34962
		},
		{
			"buffer":0,
			"byteLength":299120,
			"byteOffset":2126212,
			"target":34962
		},
		{
			"buffer":0,
			"byteLength":154338,
			"byteOffset":2425332,
			"target":34963
		}
	],
	"buffers":[
		{
			"byteLength":2579672,
			"uri":"data:application/octet-stream;base64,"
		}
	]
}
