<?xml version="1.0" encoding="utf-8"?>
<!-- Generator: Adobe Illustrator 25.2.3, SVG Export Plug-In . SVG Version: 6.00 Build 0)  -->
<svg version="1.1" id="레이어_1" xmlns="http://www.w3.org/2000/svg" xmlns:xlink="http://www.w3.org/1999/xlink" x="0px"
	 y="0px" viewBox="0 0 72 72" style="enable-background:new 0 0 72 72;" xml:space="preserve">
<style type="text/css">
	.st0{fill:#585858;}
</style>
<path class="st0" d="M21.8,71.9c0.1-2,1.9-6.1,2.2-6.9c2.3-5.2,6.3-12.4,14-20c0,0,1.3-1.3-0.4-3c0,0-1.7-1.1-3,0.1
	c0,0-9.1,7.4-14.6,19.9c-1.4-3.3-5-16.6,3.8-24.6c5.9-5.4,13.5-8.1,17.8-9.2c2.4-0.7,4.9-1,7.4-0.9c1.2,0.1,2.5,0.3,3.1,0.7
	c0.4,0.3,0.7,0.5,1,0.8c0.7,0.9,1,2,1,3.1v16.2c0,8-5,12.6-5,12.6C41.9,68.2,30,65,30,65s-2.1,4.1-3.2,7H66c3.3,0,6-2.7,6-6V28
	c0-2-1.9-3.7-3.5-4.9L40.3,2C39.4,1.3,38,0,36,0s-3.4,1.3-4.3,2L3.5,23.1C1.9,24.3,0,26,0,28v38c0,3.3,2.7,6,6,6h15.8
	C21.8,71.9,21.8,71.9,21.8,71.9z"/>
</svg>
