<?xml version="1.0" encoding="utf-8"?>
<!-- Generator: Adobe Illustrator 25.2.3, SVG Export Plug-In . SVG Version: 6.00 Build 0)  -->
<svg version="1.1" id="레이어_1" xmlns="http://www.w3.org/2000/svg" xmlns:xlink="http://www.w3.org/1999/xlink" x="0px"
	 y="0px" viewBox="0 0 512 512" style="enable-background:new 0 0 512 512;" xml:space="preserve">
<style type="text/css">
	.st0{fill:url(#SVGID_2_);}
	.st1{fill:url(#SVGID_3_);}
	.st2{filter:url(#Adobe_OpacityMaskFilter);}
	.st3{opacity:0.5;mask:url(#SVGID_1_);}
	.st4{fill:#C8FF9F;}
</style>
<g>
	<g>
		<g>
			
				<linearGradient id="SVGID_2_" gradientUnits="userSpaceOnUse" x1="255.9553" y1="510" x2="255.9553" y2="-2" gradientTransform="matrix(1 0 0 1 0 2)">
				<stop  offset="0" style="stop-color:#16AE59"/>
				<stop  offset="1" style="stop-color:#085A5E"/>
			</linearGradient>
			<path class="st0" d="M453.4,57.3C401.1,10.2,331.1,0,266.1,0h-20.4C178.3,0,108.2,11.5,58.5,57.3C11.4,109.5,1.2,179.6,1.2,245.8
				v20.4c0,67.5,11.5,138.8,57.3,188.5C112,501.8,182.1,512,247,512h17.8c67.5,0,138.8-11.5,188.5-57.3
				c47.1-53.5,57.3-123.5,57.3-188.5v-17.8C512,178.3,500.5,107,453.4,57.3z"/>
		</g>
	</g>
</g>
<g>
	<g>
		<g>
			
				<radialGradient id="SVGID_3_" cx="256" cy="417.8511" r="323.7521" gradientTransform="matrix(1 0 0 -1 0 512)" gradientUnits="userSpaceOnUse">
				<stop  offset="0.4162" style="stop-color:#F5FFEB"/>
				<stop  offset="0.8089" style="stop-color:#F5FFEB"/>
				<stop  offset="0.9553" style="stop-color:#D0FF9D"/>
				<stop  offset="1" style="stop-color:#D0FF9D"/>
			</radialGradient>
			<path class="st1" d="M402.3,198l-126.9-95c-4-3.2-10.4-9-19.4-9s-15.3,5.8-19.3,9l-126.9,95c-7.2,5.4-15.8,13-15.8,22v171
				c0,14.8,12.1,27,27,27h57.6c0-0.4,0-0.4,0-0.4c0.5-9,8.6-27.5,9.9-31.1c10.4-23.4,28.4-55.8,63-90c0,0,5.9-5.8-1.8-13.5
				c0,0-7.7-4.9-13.5,0.4c0,0-41,33.3-65.7,89.6c-6.3-14.8-22.5-74.7,17.1-110.7c26.6-24.3,60.7-36.5,80.1-41.4
				c10.8-3.2,22-4.5,33.3-4.1c5.4,0.5,11.2,1.4,14,3.2c1.8,1.3,3.2,2.2,4.5,3.6c3.2,4.1,4.5,9,4.5,14v72.9c0,36-22.5,56.7-22.5,56.7
				c-32.4,33.8-86,19.3-86,19.3s-9.4,18.4-14.4,31.5H391c14.9,0,27-12.2,27-27V220C418,211,409.5,203.4,402.3,198z"/>
		</g>
		<defs>
			<filter id="Adobe_OpacityMaskFilter" filterUnits="userSpaceOnUse" x="94" y="94" width="324" height="324">
				<feColorMatrix  type="matrix" values="1 0 0 0 0  0 1 0 0 0  0 0 1 0 0  0 0 0 1 0"/>
			</filter>
		</defs>
		<mask maskUnits="userSpaceOnUse" x="94" y="94" width="324" height="324" id="SVGID_1_">
			<g class="st2">
			</g>
		</mask>
		<g class="st3">
			<path class="st4" d="M402.3,198l-126.9-95c-4-3.2-10.4-9-19.4-9s-15.3,5.8-19.3,9l-126.9,95c-7.2,5.4-15.8,13-15.8,22v171
				c0,14.8,12.1,27,27,27h57.6c0-0.4,0-0.4,0-0.4c0.5-9,8.6-27.5,9.9-31.1c10.4-23.4,28.4-55.8,63-90c0,0,5.9-5.8-1.8-13.5
				c0,0-7.7-4.9-13.5,0.4c0,0-41,33.3-65.7,89.6c-6.3-14.8-22.5-74.7,17.1-110.7c26.6-24.3,60.7-36.5,80.1-41.4
				c10.8-3.2,22-4.5,33.3-4.1c5.4,0.5,11.2,1.4,14,3.2c1.8,1.3,3.2,2.2,4.5,3.6c3.2,4.1,4.5,9,4.5,14v72.9c0,36-22.5,56.7-22.5,56.7
				c-32.4,33.8-86,19.3-86,19.3s-9.4,18.4-14.4,31.5H391c14.9,0,27-12.2,27-27V220C418,211,409.5,203.4,402.3,198z"/>
		</g>
	</g>
</g>
</svg>
