<?xml version="1.0" encoding="utf-8"?>
<!-- Generator: Adobe Illustrator 25.2.3, SVG Export Plug-In . SVG Version: 6.00 Build 0)  -->
<svg version="1.1" id="레이어_1" xmlns="http://www.w3.org/2000/svg" xmlns:xlink="http://www.w3.org/1999/xlink" x="0px"
	 y="0px" viewBox="0 0 72 72" style="enable-background:new 0 0 72 72;" xml:space="preserve">
<style type="text/css">
	.st0{fill:#585858;}
</style>
<path class="st0" d="M68.5,23.1L40.3,2C39.4,1.3,38,0,36,0s-3.4,1.3-4.3,2L3.5,23.1C1.9,24.3,0,26,0,28v38c0,3.3,2.7,6,6,6h7.3h5.5
	h5h32.3H66c3.3,0,6-2.7,6-6V28C72,26,70.1,24.3,68.5,23.1z M43,72H29V41.9c0-1.1,0.9-2,2-2h10c1.1,0,2,0.9,2,2V72z"/>
</svg>
