<?xml version="1.0" encoding="utf-8"?>
<!-- Generator: Adobe Illustrator 25.2.3, SVG Export Plug-In . SVG Version: 6.00 Build 0)  -->
<svg version="1.1" id="레이어_1" xmlns="http://www.w3.org/2000/svg" xmlns:xlink="http://www.w3.org/1999/xlink" x="0px"
	 y="0px" viewBox="0 0 72 72" style="enable-background:new 0 0 72 72;" xml:space="preserve">
<style type="text/css">
	.st0{fill:#EE1C25;}
</style>
<g>
	<path class="st0" d="M36,67L36,67c1.1,0,2-0.9,2-2V51c0-1.1-0.9-2-2-2l0,0c-1.1,0-2,0.9-2,2v14C34,66.1,34.9,67,36,67z"/>
	<g>
		<path class="st0" d="M68.5,23.1L40.3,2C39.4,1.3,38,0,36,0s-3.4,1.3-4.3,2L3.5,23.1C1.9,24.3,0,26,0,28v13c0,0,4,1,10,1
			c12,0,26-7,26-7s14,7,26,7c6,0,10-1,10-1V28C72,26,70.1,24.3,68.5,23.1z"/>
		<path class="st0" d="M8,51c0-4.4-3.6-8-8-8v16C4.4,59,8,55.4,8,51z"/>
		<path class="st0" d="M36,72h25.6H66c3.3,0,6-2.7,6-6v-5.7L62,60C62,60,54,72,36,72z"/>
		<path class="st0" d="M10,60L0,60.3V66c0,3.3,2.7,6,6,6h5.4h7.4h5H36C18,72,10,60,10,60z"/>
		<path class="st0" d="M64,51c0,4.4,3.6,8,8,8V43C67.6,43,64,46.6,64,51z"/>
	</g>
</g>
</svg>
