<?xml version="1.0" encoding="utf-8"?>
<!-- Generator: Adobe Illustrator 25.2.3, SVG Export Plug-In . SVG Version: 6.00 Build 0)  -->
<svg version="1.1" id="레이어_1" xmlns="http://www.w3.org/2000/svg" xmlns:xlink="http://www.w3.org/1999/xlink" x="0px"
	 y="0px" viewBox="0 0 72 72" enable-background="new 0 0 72 72" xml:space="preserve">
<g>
	<path fill="#585858" d="M68.5,23.1L40.3,2C39.4,1.3,38,0,36,0s-3.4,1.3-4.3,2L3.5,23.1C1.9,24.3,0,26,0,28v38c0,3.3,2.7,6,6,6h5.4
		h7.4h5h37.7H66c3.3,0,6-2.7,6-6V28C72,26,70.1,24.3,68.5,23.1z M57.4,65.5H14.6c-1.6,0-2.5-1.7-1.7-3.1l21.4-34.2
		c0.8-1.3,2.6-1.3,3.4,0l21.4,34.2C59.9,63.8,59,65.5,57.4,65.5z"/>
	<circle fill="#585858" cx="36" cy="60.5" r="2"/>
	<path fill="#585858" d="M36,37.5c-1.7,0-3,1.3-3,3c0,1,1,13,1,13c0,1.1,0.9,2,2,2s2-0.9,2-2c0,0,1-12,1-13
		C39,38.8,37.7,37.5,36,37.5z"/>
</g>
</svg>
