<?xml version="1.0" encoding="utf-8"?>
<!-- Generator: Adobe Illustrator 25.2.3, SVG Export Plug-In . SVG Version: 6.00 Build 0)  -->
<svg version="1.1" id="레이어_1" xmlns="http://www.w3.org/2000/svg" xmlns:xlink="http://www.w3.org/1999/xlink" x="0px"
	 y="0px" viewBox="0 0 660 260" enable-background="new 0 0 660 260" xml:space="preserve">
<g id="레이어_2_1_">
	<g>
		<g>
			<g>
				
					<linearGradient id="SVGID_1_" gradientUnits="userSpaceOnUse" x1="324.4899" y1="-389.9066" x2="324.4899" y2="-293.7198" gradientTransform="matrix(1 0 0 -1 0 -212)">
					<stop  offset="0" style="stop-color:#16AE59"/>
					<stop  offset="1" style="stop-color:#085A5E"/>
				</linearGradient>
				<path fill="url(#SVGID_1_)" d="M361.2837,92.6459c-9.7121-8.965-23.1595-10.8327-35.1128-10.8327h-3.7354
					c-12.7004,0-25.7743,2.2412-35.1129,10.8327c-8.965,9.7121-10.8327,23.1595-10.8327,35.4864v3.7354
					c0,12.7004,2.2412,26.1479,10.8327,35.4864c10.0856,8.965,23.1595,10.8327,35.4864,10.8327h3.3619
					c12.7004,0,26.1479-2.2413,35.4864-10.8327c8.965-10.0856,10.8327-23.1595,10.8327-35.4864v-3.3619
					C372.1164,115.0584,370.2487,101.9844,361.2837,92.6459z"/>
			</g>
		</g>
	</g>
	<g>
		<g>
			<g>
				
					<radialGradient id="SVGID_2_" cx="324.144" cy="97.407" r="60.8218" gradientTransform="matrix(1 0 0 1 0 2)" gradientUnits="userSpaceOnUse">
					<stop  offset="0.4162" style="stop-color:#F5FFEB"/>
					<stop  offset="0.8089" style="stop-color:#F5FFEB"/>
					<stop  offset="0.9553" style="stop-color:#D0FF9D"/>
					<stop  offset="1" style="stop-color:#D0FF9D"/>
				</radialGradient>
				<path fill="url(#SVGID_2_)" d="M351.5716,118.7938l-23.9066-17.93c-0.7471-0.7471-1.8677-1.8677-3.7354-1.8677
					s-2.9883,1.1206-3.7354,1.8677l-23.5331,17.93c-1.4942,1.1206-2.9883,2.6148-2.9883,4.109v32.1245
					c0,2.6148,2.2413,5.2296,5.2296,5.2296h10.8327l0,0c0-1.8677,1.4942-5.2296,1.8677-5.9767
					c1.8677-4.4825,5.2296-10.4591,11.9533-16.8093c0,0,1.1206-1.1206-0.3735-2.6148c0,0-1.4941-0.7471-2.6148,0
					c0,0-7.8444,6.3502-12.3268,16.8093c-1.1206-2.6148-4.1089-14.1945,3.3618-20.9183c4.856-4.4825,11.5798-6.7237,14.9417-7.8444
					c1.8677-0.7471,4.1089-0.7471,6.3502-0.7471c1.1206,0,2.2412,0.3735,2.6148,0.7471c0.3735,0.3735,0.7471,0.3735,0.7471,0.7471
					c0.7471,0.7471,0.7471,1.8677,0.7471,2.6148v13.821c0,6.7237-4.109,10.8327-4.109,10.8327
					c-5.9767,6.3502-16.0623,3.7354-16.0623,3.7354s-1.8677,3.3619-2.6148,5.9767h35.8599c2.6148,0,5.2296-2.2413,5.2296-5.2296
					v-32.1245C354.5599,121.4086,353.0658,119.9144,351.5716,118.7938z"/>
			</g>
		</g>
	</g>
</g>
<g>
	<g id="레이어_2_3_">
		<g>
			<g>
				<g>
					
						<linearGradient id="SVGID_3_" gradientUnits="userSpaceOnUse" x1="467.9128" y1="-389.9066" x2="467.9128" y2="-293.7198" gradientTransform="matrix(1 0 0 -1 0 -212)">
						<stop  offset="0" style="stop-color:#FEC901"/>
						<stop  offset="1" style="stop-color:#942D00"/>
					</linearGradient>
					<path fill="url(#SVGID_3_)" d="M504.7065,92.6459c-9.7121-8.965-23.1595-10.8327-35.1128-10.8327h-3.7354
						c-12.7004,0-25.7743,2.2412-35.1129,10.8327c-8.965,9.7121-10.8327,23.1595-10.8327,35.4864v3.7354
						c0,12.7004,2.2412,26.1479,10.8327,35.4864c10.0856,8.965,23.1595,10.8327,35.4864,10.8327h3.3619
						c12.7004,0,26.1479-2.2413,35.4864-10.8327c8.965-10.0856,10.8327-23.1595,10.8327-35.4864v-3.3619
						C515.5391,115.0584,513.6714,101.9844,504.7065,92.6459z"/>
				</g>
			</g>
		</g>
	</g>
	<g>
		
			<radialGradient id="SVGID_4_" cx="467.6903" cy="160.9284" r="61.5151" gradientTransform="matrix(1 0 0 -1 0 260)" gradientUnits="userSpaceOnUse">
			<stop  offset="0.4162" style="stop-color:#FFFFEB"/>
			<stop  offset="0.8089" style="stop-color:#F5FFEB"/>
			<stop  offset="0.9553" style="stop-color:#FFE78E"/>
			<stop  offset="1" style="stop-color:#FFE78E"/>
		</radialGradient>
		<path fill="url(#SVGID_4_)" d="M493.5936,160.6303c2.8249,0,5.1362-2.3113,5.1362-5.1362V122.965
			c0-1.7121-1.6265-3.1673-2.9961-4.1945l-24.1401-18.0623c-0.7704-0.5992-1.9689-1.7121-3.6809-1.7121
			s-2.9105,1.1128-3.6809,1.7121l-24.1401,18.0623c-1.3697,1.0272-2.9961,2.4825-2.9961,4.1945v32.5292
			c0,2.8249,2.3113,5.1362,5.1362,5.1362h51.3618V160.6303z M486.2318,155.0661h-36.6381c-1.3697,0-2.1401-1.4553-1.4553-2.6537
			l18.3191-29.2763c0.6848-1.1128,2.2257-1.1128,2.9105,0l18.3191,29.2763C488.3718,153.6109,487.6014,155.0661,486.2318,155.0661z"
			/>
		
			<radialGradient id="SVGID_5_" cx="467.6903" cy="160.9284" r="61.5151" gradientTransform="matrix(1 0 0 -1 0 260)" gradientUnits="userSpaceOnUse">
			<stop  offset="0.4162" style="stop-color:#FFFFEB"/>
			<stop  offset="0.8089" style="stop-color:#F5FFEB"/>
			<stop  offset="0.9553" style="stop-color:#FFE78E"/>
			<stop  offset="1" style="stop-color:#FFE78E"/>
		</radialGradient>
		<circle fill="url(#SVGID_5_)" cx="467.9127" cy="150.786" r="1.7121"/>
		
			<radialGradient id="SVGID_6_" cx="467.6903" cy="160.9284" r="61.5151" gradientTransform="matrix(1 0 0 -1 0 260)" gradientUnits="userSpaceOnUse">
			<stop  offset="0.4162" style="stop-color:#FFFFEB"/>
			<stop  offset="0.8089" style="stop-color:#F5FFEB"/>
			<stop  offset="0.9553" style="stop-color:#FFE78E"/>
			<stop  offset="1" style="stop-color:#FFE78E"/>
		</radialGradient>
		<path fill="url(#SVGID_6_)" d="M467.9127,131.0973c-1.4553,0-2.5681,1.1128-2.5681,2.5681c0,0.856,0.856,11.1284,0.856,11.1284
			c0,0.9416,0.7704,1.7121,1.7121,1.7121c0.9416,0,1.7121-0.7704,1.7121-1.7121c0,0,0.856-10.2724,0.856-11.1284
			C470.4808,132.2101,469.368,131.0973,467.9127,131.0973z"/>
	</g>
</g>
<g id="레이어_2_2_">
	<g>
		<g>
			<g>
				
					<linearGradient id="SVGID_7_" gradientUnits="userSpaceOnUse" x1="611.7441" y1="-294.1678" x2="611.7441" y2="-390.3546" gradientTransform="matrix(1 0 0 -1 0 -212)">
					<stop  offset="0" style="stop-color:#8B0F31"/>
					<stop  offset="0.0028" style="stop-color:#1B494F"/>
					<stop  offset="1" style="stop-color:#E70232"/>
				</linearGradient>
				<path fill="url(#SVGID_7_)" d="M648.5379,92.7203c-9.712-8.965-23.1595-10.8327-35.1128-10.8327h-3.7354
					c-12.7004,0-25.7744,2.2412-35.1129,10.8327c-8.965,9.7121-10.8327,23.1595-10.8327,35.4864v3.7354
					c0,12.7004,2.2413,26.1479,10.8327,35.4864c10.0856,8.965,23.1595,10.8327,35.4864,10.8327h3.3619
					c12.7004,0,26.1478-2.2412,35.4863-10.8327c8.965-10.0856,10.8327-23.1595,10.8327-35.4864v-3.3619
					C659.3706,115.1328,657.5029,102.0588,648.5379,92.7203z"/>
			</g>
		</g>
	</g>
</g>
<g>
	
		<radialGradient id="SVGID_8_" cx="611.6013" cy="160.9056" r="62.1508" gradientTransform="matrix(1 0 0 -1 0 260)" gradientUnits="userSpaceOnUse">
		<stop  offset="0" style="stop-color:#FFFFFF"/>
		<stop  offset="0.8089" style="stop-color:#FFFFFF"/>
		<stop  offset="0.9553" style="stop-color:#FFD7B0"/>
		<stop  offset="1" style="stop-color:#FFD7B0"/>
	</radialGradient>
	<path fill="url(#SVGID_8_)" d="M611.7441,156.6114L611.7441,156.6114c0.9417,0,1.7121-0.7704,1.7121-1.7121v-11.9844
		c0-0.9416-0.7704-1.7121-1.7121-1.7121l0,0c-0.9417,0-1.712,0.7704-1.712,1.7121v11.9844
		C610.0321,155.8409,610.8025,156.6114,611.7441,156.6114z"/>
	<g>
		
			<radialGradient id="SVGID_9_" cx="611.6013" cy="160.9056" r="62.1508" gradientTransform="matrix(1 0 0 -1 0 260)" gradientUnits="userSpaceOnUse">
			<stop  offset="0" style="stop-color:#FFFFFF"/>
			<stop  offset="0.8089" style="stop-color:#FFFFFF"/>
			<stop  offset="0.9553" style="stop-color:#FFD7B0"/>
			<stop  offset="1" style="stop-color:#FFD7B0"/>
		</radialGradient>
		<path fill="url(#SVGID_9_)" d="M639.5652,119.0316l-24.1401-18.0623c-0.7704-0.5992-1.9689-1.7121-3.681-1.7121
			c-1.712,0-2.9105,1.1128-3.6809,1.7121l-24.1401,18.0623c-1.3697,1.0272-2.9962,2.4825-2.9962,4.1945v11.1284
			c0,0,3.4241,0.856,8.5604,0.856c10.2723,0,22.2568-5.9922,22.2568-5.9922s11.9844,5.9922,22.2568,5.9922
			c5.1362,0,8.5603-0.856,8.5603-0.856v-11.1284C642.5613,121.5141,640.9348,120.0588,639.5652,119.0316z"/>
		
			<radialGradient id="SVGID_10_" cx="611.6013" cy="160.9056" r="62.1508" gradientTransform="matrix(1 0 0 -1 0 260)" gradientUnits="userSpaceOnUse">
			<stop  offset="0" style="stop-color:#FFFFFF"/>
			<stop  offset="0.8089" style="stop-color:#FFFFFF"/>
			<stop  offset="0.9553" style="stop-color:#FFD7B0"/>
			<stop  offset="1" style="stop-color:#FFD7B0"/>
		</radialGradient>
		<path fill="url(#SVGID_10_)" d="M587.7753,142.9149c0-3.7665-3.0817-6.8483-6.8483-6.8483v13.6965
			C584.6935,149.7631,587.7753,146.6814,587.7753,142.9149z"/>
		
			<radialGradient id="SVGID_11_" cx="611.6013" cy="160.9056" r="62.1508" gradientTransform="matrix(1 0 0 -1 0 260)" gradientUnits="userSpaceOnUse">
			<stop  offset="0" style="stop-color:#FFFFFF"/>
			<stop  offset="0.8089" style="stop-color:#FFFFFF"/>
			<stop  offset="0.9553" style="stop-color:#FFD7B0"/>
			<stop  offset="1" style="stop-color:#FFD7B0"/>
		</radialGradient>
		<path fill="url(#SVGID_11_)" d="M611.7441,160.8915h21.9144h3.7665c2.8249,0,5.1362-2.3113,5.1362-5.1362v-4.8794l-8.5603-0.2568
			C634.001,150.6192,627.1527,160.8915,611.7441,160.8915z"/>
		
			<radialGradient id="SVGID_12_" cx="611.6013" cy="160.9056" r="62.1508" gradientTransform="matrix(1 0 0 -1 0 260)" gradientUnits="userSpaceOnUse">
			<stop  offset="0" style="stop-color:#FFFFFF"/>
			<stop  offset="0.8089" style="stop-color:#FFFFFF"/>
			<stop  offset="0.9553" style="stop-color:#FFD7B0"/>
			<stop  offset="1" style="stop-color:#FFD7B0"/>
		</radialGradient>
		<path fill="url(#SVGID_12_)" d="M589.4874,150.6192l-8.5604,0.2568v4.8794c0,2.8249,2.3113,5.1362,5.1362,5.1362h4.6226h6.3346
			h4.2802h10.4435C596.3356,160.8915,589.4874,150.6192,589.4874,150.6192z"/>
		
			<radialGradient id="SVGID_13_" cx="611.6013" cy="160.9056" r="62.1508" gradientTransform="matrix(1 0 0 -1 0 260)" gradientUnits="userSpaceOnUse">
			<stop  offset="0" style="stop-color:#FFFFFF"/>
			<stop  offset="0.8089" style="stop-color:#FFFFFF"/>
			<stop  offset="0.9553" style="stop-color:#FFD7B0"/>
			<stop  offset="1" style="stop-color:#FFD7B0"/>
		</radialGradient>
		<path fill="url(#SVGID_13_)" d="M635.713,142.9149c0,3.7665,3.0817,6.8483,6.8483,6.8483v-13.6965
			C638.7947,136.0666,635.713,139.1483,635.713,142.9149z"/>
	</g>
</g>
<g>
	
		<radialGradient id="SVGID_14_" cx="90" cy="238.1044" r="215.946" gradientTransform="matrix(1.035340e-13 1 0.4945 -5.120225e-14 -27.7426 -68.1064)" gradientUnits="userSpaceOnUse">
		<stop  offset="0.2103" style="stop-color:#93A0F7"/>
		<stop  offset="1" style="stop-color:#272446"/>
	</radialGradient>
	<path fill="url(#SVGID_14_)" d="M179.9906,83.0098c0,0-0.2427-14.171-3.6394-18.5904s-5.2639-6.5215-10.3303-7.4705
		s-13.8177-1.5221-13.8177-1.5221s-16.9055-0.2286-25.5771-7.3278C117.9545,41,101.0455,22.8792,90,22.8792
		S62.0455,41,53.3738,48.0991c-8.6716,7.0991-25.5771,7.3278-25.5771,7.3278S19.0455,56,13.9791,56.9489S7.0455,60,3.6488,64.4194
		S0.0094,83.0098,0.0094,83.0098S-1,84,5.6321,130.8257C13.2758,184.7934,62.0455,222,71.0135,228.818
		C79.9816,235.6359,90,237.1208,90,237.1208s10.0184-1.4849,18.9865-8.3029c8.9681-6.818,57.7377-44.0246,65.3814-97.9923
		C181,84,179.9906,83.0098,179.9906,83.0098z"/>
	<path fill="#FFFFFF" d="M139.2938,85.1982c-4.3317-2.9218-10.2664-1.7682-13.1882,2.5635l-44.6752,66.2338l-26.7693-26.7693
		c-3.6946-3.6946-9.7404-3.6946-13.435,0c-3.6946,3.6946-3.6946,9.7404,0,13.435L76.065,175.5
		c3.2905,3.2906,8.442,3.6423,12.1405,1.0715c1.0422-0.673,1.9678-1.5604,2.7025-2.6495l50.9494-75.5356
		C144.7791,94.0546,143.6255,88.1199,139.2938,85.1982z"/>
</g>
</svg>
