<?xml version="1.0" encoding="utf-8"?>
<!-- Generator: Adobe Illustrator 25.2.3, SVG Export Plug-In . SVG Version: 6.00 Build 0)  -->
<svg version="1.1" id="레이어_1" xmlns="http://www.w3.org/2000/svg" xmlns:xlink="http://www.w3.org/1999/xlink" x="0px"
	 y="0px" viewBox="0 0 512 358" style="enable-background:new 0 0 512 358;" xml:space="preserve">
<style type="text/css">
	.st0{fill:url(#SVGID_1_);}
</style>
<linearGradient id="SVGID_1_" gradientUnits="userSpaceOnUse" x1="0.478" y1="83.3835" x2="512" y2="83.3835" gradientTransform="matrix(1 0 0 1 0 93.2328)">
	<stop  offset="0" style="stop-color:#5C75B3"/>
	<stop  offset="1" style="stop-color:#272446"/>
</linearGradient>
<path class="st0" d="M41.2,216.1c-0.7,4.6-1.6,9.1-2.8,13.6c-8.6,32.6-16.8,71.7,10.9,73.1c56.2-9.3,49.9,53,71.9,48.8
	c3.3-0.6,6.5-1.5,9.6-2.7c41.3-15.6,70.7-75.9,111.2-76.6c50.5-0.8,83.5,63.5,131.4,80.6c0,0,1.2,0.2,1.8,0.2
	c0.6,0.1,1.3,0.1,1.9,0.1l0,0c19,0.2,21.8-32.3,43.7-36.6c28.4-5.6,76.3,16.3,89.5-8c12.8-23.5-53-59.7-63.3-94.8
	c-13.1-44.7,24.6-86.4,25.7-87.6c0.1,0,0.1-0.1,0.1-0.1l0,0l0,0c0,0,0,0,0,0c42.5-42.5-32.3-67.4-48.5-71.5
	c-27.5-7-37.1,20.9-66.8,10.6c-29.7-10.2-79.9-65.5-113-65.5c-48.1,0-80.6,21.2-121.8,24.5c-40.1,3.2-99.9-40-120.6-4.6
	c-5.8,9.8,3.9,23.9,16.6,38.3c25.1,28.4,36.1,66.6,30.5,104L41.2,216.1z"/>
</svg>
